<?xml version="1.0" encoding="UTF-8"?>
<!DOCTYPE svg PUBLIC "-//W3C//DTD SVG 1.1//EN" "http://www.w3.org/Graphics/SVG/1.1/DTD/svg11.dtd">
<svg xmlns="http://www.w3.org/2000/svg" version="1.1" width="512px" height="512px" style="shape-rendering:geometricPrecision; text-rendering:geometricPrecision; image-rendering:optimizeQuality; fill-rule:evenodd; clip-rule:evenodd" xmlns:xlink="http://www.w3.org/1999/xlink">
<g><path style="opacity:0.867" fill="#454545" d="M 180.5,-0.5 C 183.167,-0.5 185.833,-0.5 188.5,-0.5C 197.876,7.13899 200.71,16.8057 197,28.5C 190.643,21.1444 183.976,14.1444 177,7.5C 175.78,3.70686 176.947,1.04019 180.5,-0.5 Z"/></g>
<g><path style="opacity:0.756" fill="#454545" d="M 237.5,1.5 C 242.179,1.33418 246.845,1.50085 251.5,2C 253.813,2.64092 255.48,3.97425 256.5,6C 256.333,7.5 255.5,8.33333 254,8.5C 247.714,5.68371 241.548,5.85038 235.5,9C 232.931,12.0123 230.264,14.8457 227.5,17.5C 226.09,17.1322 225.09,16.2989 224.5,15C 227.02,8.64817 231.354,4.14817 237.5,1.5 Z"/></g>
<g><path style="opacity:0.759" fill="#454545" d="M 239.5,11.5 C 244.267,11.1908 248.934,11.6908 253.5,13C 254.38,14.3561 254.714,15.8561 254.5,17.5C 247.286,14.8024 241.286,16.3024 236.5,22C 235.207,22.49 233.873,22.6567 232.5,22.5C 232.813,17.5257 235.146,13.859 239.5,11.5 Z"/></g>
<g><path style="opacity:0.894" fill="#454545" d="M 145.5,15.5 C 159.811,14.8197 170.478,20.6531 177.5,33C 167.194,32.2275 156.861,32.3942 146.5,33.5C 138.611,34.4476 135.444,31.1143 137,23.5C 138.445,19.218 141.278,16.5513 145.5,15.5 Z"/></g>
<g><path style="opacity:0.975" fill="#454545" d="M 275.5,511.5 C 270.833,511.5 266.167,511.5 261.5,511.5C 250.853,508.014 244.686,500.68 243,489.5C 242.5,427.834 242.333,366.168 242.5,304.5C 239.833,304.5 237.167,304.5 234.5,304.5C 234.667,366.834 234.5,429.168 234,491.5C 231.485,501.176 225.651,507.842 216.5,511.5C 211.5,511.5 206.5,511.5 201.5,511.5C 192.349,507.842 186.515,501.176 184,491.5C 183.5,471.836 183.333,452.169 183.5,432.5C 168.487,431.941 153.487,431.108 138.5,430C 135.832,424.852 133.999,419.352 133,413.5C 127.313,377.926 129.813,342.926 140.5,308.5C 141.559,307.304 142.893,306.637 144.5,306.5C 147.115,307.269 149.781,307.603 152.5,307.5C 152.5,309.833 152.5,312.167 152.5,314.5C 150.167,314.5 147.833,314.5 145.5,314.5C 138.193,342.092 135.693,370.092 138,398.5C 139.071,406.926 140.571,415.259 142.5,423.5C 162.674,424.354 182.84,425.354 203,426.5C 204.167,426.167 205.333,425.833 206.5,425.5C 198.12,389.501 198.786,353.667 208.5,318C 203.146,317.609 197.812,317.109 192.5,316.5C 192.405,288.559 192.572,260.559 193,232.5C 193.636,223.141 194.469,213.808 195.5,204.5C 194.167,204.5 192.833,204.5 191.5,204.5C 188.534,241.784 187.701,279.118 189,316.5C 183.795,328.127 175.295,331.294 163.5,326C 158.155,321.809 155.655,316.309 156,309.5C 154.386,278.615 154.72,247.615 157,216.5C 158.188,194.55 163.188,173.55 172,153.5C 176.444,144.191 183.611,138.024 193.5,135C 221.833,134.667 250.167,134.333 278.5,134C 297.638,121.028 316.638,107.862 335.5,94.5C 321.004,83.5417 305.337,74.3751 288.5,67C 277.492,61.9944 266.158,60.8277 254.5,63.5C 244.368,63.0372 238.701,57.7038 237.5,47.5C 238.912,37.5876 244.578,31.7542 254.5,30C 270.71,27.4104 286.377,29.4104 301.5,36C 328.27,48.1339 352.936,63.4673 375.5,82C 383.783,91.3067 383.45,100.307 374.5,109C 347.392,127.11 320.558,145.61 294,164.5C 293.667,274.167 293.333,383.833 293,493.5C 290.317,502.682 284.483,508.682 275.5,511.5 Z"/></g>
<g><path style="opacity:0.948" fill="#454545" d="M 233.5,31.5 C 235.924,31.1924 238.257,31.5258 240.5,32.5C 232.283,42.9474 232.616,53.1141 241.5,63C 243.888,64.8605 246.554,66.1939 249.5,67C 257.167,66.6667 264.833,66.3333 272.5,66C 275.688,66.7554 278.855,67.5887 282,68.5C 286.887,87.9564 281.053,103.79 264.5,116C 245.187,126.734 226.52,125.734 208.5,113C 189.88,93.5181 187.714,72.3514 202,49.5C 210.265,39.3635 220.765,33.3635 233.5,31.5 Z M 249.5,79.5 C 255.857,79.6142 261.857,81.1142 267.5,84C 270.856,86.3469 271.856,89.3469 270.5,93C 254.325,91.568 239.158,94.7347 225,102.5C 221.434,97.1529 222.267,92.3196 227.5,88C 234.299,83.4615 241.632,80.6282 249.5,79.5 Z"/></g>
<g><path style="opacity:0.858" fill="#454545" d="M 157.5,50.5 C 166.279,49.4243 173.613,52.091 179.5,58.5C 170.715,61.4483 161.715,62.9483 152.5,63C 149.742,57.1143 151.408,52.9476 157.5,50.5 Z"/></g>
<g><path style="opacity:0.576" fill="#454545" d="M 186.5,326.5 C 190.081,327.26 193.748,327.76 197.5,328C 198.833,329 198.833,330 197.5,331C 193.159,331.77 188.992,331.27 185,329.5C 183.719,330.647 183.386,330.313 184,328.5C 184.995,327.934 185.828,327.267 186.5,326.5 Z"/></g>
<g><path style="opacity:0.688" fill="#454545" d="M 147.5,334.5 C 153.896,334.899 160.23,334.899 166.5,334.5C 170.563,335.353 174.563,336.52 178.5,338C 182.351,338.54 186.185,338.374 190,337.5C 191.973,337.309 193.473,337.976 194.5,339.5C 185.078,343.533 175.911,342.866 167,337.5C 160.172,337.694 153.339,338.027 146.5,338.5C 146.433,337.041 146.766,335.708 147.5,334.5 Z"/></g>
<g><path style="opacity:0.659" fill="#454545" d="M 155.5,344.5 C 158.85,344.335 162.183,344.502 165.5,345C 169.411,346.455 173.411,347.622 177.5,348.5C 184.122,348.048 190.789,348.048 197.5,348.5C 197.5,349.5 197.5,350.5 197.5,351.5C 190.5,352.054 183.5,352.387 176.5,352.5C 171.574,350.636 166.574,348.969 161.5,347.5C 157.547,348.362 153.547,348.695 149.5,348.5C 149.5,347.5 149.5,346.5 149.5,345.5C 151.735,345.795 153.735,345.461 155.5,344.5 Z"/></g>
<g><path style="opacity:0.645" fill="#454545" d="M 166.5,355.5 C 172.477,356.141 178.477,356.641 184.5,357C 186.941,357.036 188.941,357.869 190.5,359.5C 190.167,360.5 189.5,361.167 188.5,361.5C 184.329,360.161 180.162,359.827 176,360.5C 173.176,359.946 170.343,359.446 167.5,359C 166.663,357.989 166.33,356.822 166.5,355.5 Z"/></g>
<g><path style="opacity:0.627" fill="#454545" d="M 141.5,364.5 C 147.829,364.9 154.162,365.233 160.5,365.5C 160.5,366.5 160.5,367.5 160.5,368.5C 154.193,369.273 147.86,369.106 141.5,368C 140.316,366.855 140.316,365.688 141.5,364.5 Z"/></g>
<g><path style="opacity:0.631" fill="#454545" d="M 164.5,364.5 C 167.429,365.588 170.263,366.921 173,368.5C 179.115,368.036 185.282,368.036 191.5,368.5C 191.64,370.124 190.973,371.29 189.5,372C 185.523,372.531 181.69,372.031 178,370.5C 172.314,372.938 167.481,371.605 163.5,366.5C 163.863,365.817 164.196,365.15 164.5,364.5 Z"/></g>
<g><path style="opacity:0.762" fill="#454545" d="M 163.5,376.5 C 176.679,374.5 187.512,378.5 196,388.5C 201.433,404.136 196.266,414.636 180.5,420C 173.07,422.035 165.736,421.701 158.5,419C 155.844,416.771 156.177,414.938 159.5,413.5C 171.693,418.492 182.193,416.159 191,406.5C 195.169,393.366 190.336,385.2 176.5,382C 164.671,379.823 155.505,383.656 149,393.5C 148.667,397.5 148.333,401.5 148,405.5C 146.817,406.731 145.651,406.731 144.5,405.5C 141.467,396.144 143.8,388.311 151.5,382C 155.481,379.838 159.481,378.005 163.5,376.5 Z"/></g>
<g><path style="opacity:0.789" fill="#454545" d="M 173.5,384.5 C 174.822,384.33 175.989,384.663 177,385.5C 177.499,388.022 177.332,390.522 176.5,393C 178.635,394.993 179.635,397.493 179.5,400.5C 178.167,400.5 176.833,400.5 175.5,400.5C 175.888,402.685 176.888,404.518 178.5,406C 176.138,408.082 173.805,410.248 171.5,412.5C 169.671,411.535 167.838,410.535 166,409.5C 161.874,410.329 157.707,410.663 153.5,410.5C 153.227,408.549 153.893,407.049 155.5,406C 160.23,405.491 164.897,404.658 169.5,403.5C 170.506,402.604 170.506,401.938 169.5,401.5C 166.579,402.407 163.579,402.74 160.5,402.5C 160.286,400.856 160.62,399.356 161.5,398C 164.827,397.39 168.161,396.89 171.5,396.5C 171.334,392.326 172,388.326 173.5,384.5 Z"/></g>
</svg>
