<?xml version="1.0" encoding="UTF-8"?>
<!DOCTYPE svg PUBLIC "-//W3C//DTD SVG 1.1//EN" "http://www.w3.org/Graphics/SVG/1.1/DTD/svg11.dtd">
<svg xmlns="http://www.w3.org/2000/svg" version="1.1" width="512px" height="512px" style="shape-rendering:geometricPrecision; text-rendering:geometricPrecision; image-rendering:optimizeQuality; fill-rule:evenodd; clip-rule:evenodd" xmlns:xlink="http://www.w3.org/1999/xlink">
<g><path style="opacity:0.938" fill="#454545" d="M 365.5,15.5 C 382.837,15.3334 400.17,15.5001 417.5,16C 460.333,24.8333 486.167,50.6667 495,93.5C 498.955,145.457 476.455,179.957 427.5,197C 424.167,197.667 420.833,198.333 417.5,199C 400.167,199.667 382.833,199.667 365.5,199C 357.173,197.447 349.007,195.28 341,192.5C 324.622,195.926 308.122,198.092 291.5,199C 289.667,198.5 288.5,197.333 288,195.5C 287.333,192.5 287.333,189.5 288,186.5C 291.702,175.726 295.202,164.893 298.5,154C 285.606,127.14 284.106,99.6403 294,71.5C 308.419,40.7188 332.252,22.0521 365.5,15.5 Z M 378.5,31.5 C 393.986,30.8988 409.32,32.0655 424.5,35C 454.04,44.87 471.873,65.0367 478,95.5C 481.495,137.374 463.661,165.541 424.5,180C 403.905,184.228 383.238,184.561 362.5,181C 357.617,179.928 352.95,178.261 348.5,176C 335.697,176.077 323.031,177.577 310.5,180.5C 309.833,180.167 309.167,179.833 308.5,179.5C 311.88,170.862 314.547,162.029 316.5,153C 314.997,146.485 312.497,140.319 309,134.5C 297.861,98.9234 306.695,69.4234 335.5,46C 348.608,37.2419 362.942,32.4086 378.5,31.5 Z"/></g>
<g><path style="opacity:0.925" fill="#454545" d="M 386.5,42.5 C 411.587,42.3614 425.587,54.6947 428.5,79.5C 428.206,85.8066 426.706,91.8066 424,97.5C 417.706,105.462 411.04,113.129 404,120.5C 401.542,127.375 399.542,134.375 398,141.5C 393.948,143.942 389.781,144.109 385.5,142C 384.874,141.25 384.374,140.416 384,139.5C 382.386,128.289 384.719,117.956 391,108.5C 396.301,102.198 401.968,96.1979 408,90.5C 414.556,75.4449 410.056,65.2782 394.5,60C 385.371,59.3138 378.204,62.8138 373,70.5C 371.423,75.0794 372.923,78.0794 377.5,79.5C 380.975,77.1924 384.308,74.6924 387.5,72C 398.073,70.9116 401.573,75.4116 398,85.5C 386.948,98.1517 374.781,99.4851 361.5,89.5C 353.68,78.996 353.514,68.3293 361,57.5C 367.968,49.6579 376.468,44.6579 386.5,42.5 Z"/></g>
<g><path style="opacity:0.94" fill="#454545" d="M 167.5,127.5 C 196.496,124.551 220.663,133.884 240,155.5C 242.631,159.089 243.797,163.089 243.5,167.5C 262.063,167.694 273.896,176.694 279,194.5C 279.168,205.515 279.668,216.515 280.5,227.5C 293.033,236.241 297.866,248.241 295,263.5C 289.902,279.08 279.068,287.413 262.5,288.5C 256.542,311.946 243.208,329.779 222.5,342C 229.063,346.608 234.73,352.108 239.5,358.5C 306.385,368.552 343.552,407.219 351,474.5C 351.5,481.492 351.666,488.492 351.5,495.5C 346.125,495.828 340.792,495.495 335.5,494.5C 335.404,470.181 329.904,447.181 319,425.5C 311.067,412.733 300.9,402.066 288.5,393.5C 287.667,407.488 287.167,421.488 287,435.5C 286.626,436.416 286.126,437.25 285.5,438C 282.298,439.483 278.964,439.817 275.5,439C 266.913,435.527 258.246,432.361 249.5,429.5C 246.81,442.116 244.31,454.782 242,467.5C 240.769,476.792 240.269,486.126 240.5,495.5C 234.833,495.5 229.167,495.5 223.5,495.5C 223.015,481.362 224.182,467.362 227,453.5C 232.772,427.805 238.605,402.138 244.5,376.5C 230.337,393.724 216.67,411.724 203.5,430.5C 207.737,438.47 208.57,446.804 206,455.5C 197.889,467.943 189.389,480.11 180.5,492C 179.092,492.315 177.759,491.982 176.5,491C 172.941,488.394 169.607,485.56 166.5,482.5C 173.754,471.658 181.254,460.992 189,450.5C 191,447.167 191,443.833 189,440.5C 172.411,430.454 155.578,420.787 138.5,411.5C 121.449,434.394 104.949,457.727 89,481.5C 87.9805,482.687 86.8139,483.687 85.5,484.5C 81.9704,481.805 78.3037,479.305 74.5,477C 72.9926,476.163 72.4926,474.996 73,473.5C 81.8695,461.596 90.3695,449.429 98.5,437C 95.0058,438.098 91.3391,438.931 87.5,439.5C 84.0286,439.849 81.5286,438.516 80,435.5C 79.8328,421.488 79.3328,407.488 78.5,393.5C 54.6949,410.087 40.1949,432.754 35,461.5C 33.3177,472.471 32.151,483.471 31.5,494.5C 26.2079,495.495 20.8746,495.828 15.5,495.5C 13.6807,461.084 22.8474,430.084 43,402.5C 67.0294,373.906 97.8627,359.406 135.5,359C 136.303,352.561 138.636,346.727 142.5,341.5C 122.924,328.904 110.258,311.237 104.5,288.5C 87.94,287.423 77.1066,279.09 72,263.5C 69.2091,248.19 74.0424,236.023 86.5,227C 72.3937,212.078 67.8937,194.578 73,174.5C 78.4628,166.527 85.9628,163.693 95.5,166C 98.3286,167.247 100.995,168.747 103.5,170.5C 113.349,160.817 123.349,151.317 133.5,142C 143.901,134.709 155.234,129.875 167.5,127.5 Z M 169.5,144.5 C 192.749,141.967 211.749,149.634 226.5,167.5C 222.814,171.352 219.314,175.352 216,179.5C 213.833,189.333 217.667,193.167 227.5,191C 230.463,189.039 233.129,186.706 235.5,184C 245.3,182.351 253.467,185.184 260,192.5C 260.862,194.087 261.529,195.754 262,197.5C 263.297,206.114 263.797,214.781 263.5,223.5C 255.088,224.043 247.088,222.543 239.5,219C 230.833,210.333 222.167,201.667 213.5,193C 209.5,191 205.5,191 201.5,193C 176.638,217.064 146.971,226.731 112.5,222C 93.7276,214.922 86.0609,201.756 89.5,182.5C 97.8313,188.527 106.498,189.027 115.5,184C 125.529,173.636 135.863,163.636 146.5,154C 153.793,149.679 161.46,146.512 169.5,144.5 Z M 206.5,211.5 C 213.996,218.828 221.662,225.995 229.5,233C 234.988,236.577 240.988,238.743 247.5,239.5C 247.77,253.863 247.27,268.196 246,282.5C 241.139,304.594 228.472,320.261 208,329.5C 193.596,323.516 181.93,326.849 173,339.5C 169.578,338.376 167.078,336.209 165.5,333C 141.421,324.258 126.588,307.424 121,282.5C 119.73,268.196 119.23,253.863 119.5,239.5C 123.514,239.334 127.514,239.501 131.5,240C 129.667,240.5 128.5,241.667 128,243.5C 125.864,253.034 129.698,257.2 139.5,256C 137.667,256.5 136.5,257.667 136,259.5C 134.72,270.872 139.387,274.205 150,269.5C 152,265.5 152,261.5 150,257.5C 149.25,256.874 148.416,256.374 147.5,256C 158.833,256.333 162.167,251.333 157.5,241C 153.619,239.81 149.619,239.143 145.5,239C 168.917,236.267 189.25,227.1 206.5,211.5 Z M 98.5,240.5 C 100.167,240.5 101.833,240.5 103.5,240.5C 103.5,250.5 103.5,260.5 103.5,270.5C 91.6113,269.081 86.778,262.415 89,250.5C 91.0223,245.98 94.189,242.647 98.5,240.5 Z M 263.5,240.5 C 272.827,241.16 277.827,246.16 278.5,255.5C 277.827,264.84 272.827,269.84 263.5,270.5C 263.5,260.5 263.5,250.5 263.5,240.5 Z M 193.5,343.5 C 196.016,343.755 198.35,344.589 200.5,346C 206.208,351.377 212.208,356.377 218.5,361C 221.626,363.45 223.959,366.45 225.5,370C 214.137,387.371 201.97,404.204 189,420.5C 175.222,412.699 161.722,404.532 148.5,396C 151.985,390.51 155.485,385.01 159,379.5C 159.667,376.833 159.667,374.167 159,371.5C 155.547,366.626 153.88,361.292 154,355.5C 155.255,353.406 157.088,352.406 159.5,352.5C 163.825,353.974 167.825,356.141 171.5,359C 175.244,359.929 178.744,359.429 182,357.5C 184.7,351.686 188.533,347.019 193.5,343.5 Z M 134.5,375.5 C 136.604,375.201 138.604,375.534 140.5,376.5C 136.196,383.303 131.696,389.97 127,396.5C 125.496,389.819 123.996,383.153 122.5,376.5C 126.702,376.817 130.702,376.483 134.5,375.5 Z M 103.5,380.5 C 104.496,380.414 105.329,380.748 106,381.5C 108.167,391 110.333,400.5 112.5,410C 112.167,410.833 111.833,411.667 111.5,412.5C 106.354,415.076 101.021,417.076 95.5,418.5C 95.5,406.833 95.5,395.167 95.5,383.5C 98.4432,383.02 101.11,382.02 103.5,380.5 Z M 261.5,380.5 C 264.844,381.508 268.177,382.508 271.5,383.5C 271.5,395.167 271.5,406.833 271.5,418.5C 265.979,417.076 260.646,415.076 255.5,412.5C 255.167,411.667 254.833,410.833 254.5,410C 256.649,400.082 258.982,390.249 261.5,380.5 Z"/></g>
<g><path style="opacity:0.892" fill="#454545" d="M 387.5,151.5 C 398.86,150.71 402.193,155.543 397.5,166C 386.964,169.997 382.464,166.497 384,155.5C 384.69,153.65 385.856,152.316 387.5,151.5 Z"/></g>
<g><path style="opacity:0.931" fill="#454545" d="M 211.5,239.5 C 219.507,239.334 227.507,239.5 235.5,240C 238.516,241.529 239.849,244.029 239.5,247.5C 239.485,249.634 238.985,251.634 238,253.5C 234.733,255.101 231.233,255.934 227.5,256C 229.333,256.5 230.5,257.667 231,259.5C 232.28,270.872 227.613,274.205 217,269.5C 215.517,266.298 215.183,262.964 216,259.5C 216.5,257.667 217.667,256.5 219.5,256C 209.698,257.2 205.864,253.034 208,243.5C 208.69,241.65 209.856,240.316 211.5,239.5 Z"/></g>
<g><path style="opacity:0.911" fill="#454545" d="M 179.5,247.5 C 185.489,246.065 189.655,248.065 192,253.5C 195.115,261.842 197.615,270.342 199.5,279C 199.044,286.58 195.044,289.246 187.5,287C 185.185,285.891 183.685,284.057 183,281.5C 179.885,273.158 177.385,264.658 175.5,256C 175.134,252.236 176.467,249.403 179.5,247.5 Z"/></g>
<g><path style="opacity:0.95" fill="#454545" d="M 171.5,303.5 C 179.507,303.334 187.507,303.5 195.5,304C 197.333,304.5 198.5,305.667 199,307.5C 199.667,310.167 199.667,312.833 199,315.5C 198.5,317.333 197.333,318.5 195.5,319C 187.5,319.667 179.5,319.667 171.5,319C 168.484,317.471 167.151,314.971 167.5,311.5C 167.282,307.934 168.616,305.268 171.5,303.5 Z"/></g>
</svg>
